# Blender v2.69 (sub 0) OBJ File: 'nepia.blend'
# www.blender.org
mtllib nepia.mtl
v 0.122000 -0.042500 -0.058000
v 0.122000 -0.042500 0.058000
v -0.122000 -0.042500 0.058000
v -0.122000 -0.042500 -0.058000
v 0.122000 0.042500 -0.058000
v 0.122000 0.042500 0.058000
v -0.122000 0.042500 0.058000
v -0.122000 0.042500 -0.058000
vt 0.855612 0.978652
vt 0.580978 0.978244
vt 0.855069 0.568406
vt 0.022687 0.982716
vt 0.022217 0.575262
vt 0.295416 0.573580
vt 0.021446 0.552350
vt 0.021557 0.407938
vt 0.305534 0.552260
vt 0.600712 0.251156
vt 0.600662 0.399677
vt 0.020463 0.254167
vt 0.611147 0.410100
vt 0.611084 0.552523
vt 0.336054 0.410869
vt 0.549850 0.575097
vt 0.346508 0.572690
vt 0.541827 0.981896
vt 0.580435 0.568676
vt 0.297322 0.982506
vt 0.305295 0.408118
vt 0.020917 0.398643
vt 0.334531 0.552128
vt 0.337836 0.982166
vn 0.000000 -1.000000 0.000000
vn 0.000000 1.000000 0.000000
vn 1.000000 -0.000001 0.000000
vn -0.000000 -0.000000 1.000000
vn -1.000000 -0.000000 -0.000001
vn 0.000000 0.000000 -1.000000
vn 1.000000 0.000001 0.000001
vn -1.000000 -0.000001 -0.000000
usemtl Material
s off
f 1/1/1 2/2/1 4/3/1
f 5/4/2 8/5/2 7/6/2
f 1/7/3 5/8/3 2/9/3
f 2/10/4 6/11/4 3/12/4
f 3/13/5 7/14/5 4/15/5
f 5/16/6 1/17/6 8/18/6
f 2/2/1 3/19/1 4/3/1
f 6/20/2 5/4/2 7/6/2
f 5/8/7 6/21/7 2/9/7
f 6/11/4 7/22/4 3/12/4
f 7/14/8 8/23/8 4/15/8
f 1/17/6 4/24/6 8/18/6
